<?xml version="1.0" encoding="UTF-8"?><svg id="Layer_2" xmlns="http://www.w3.org/2000/svg" viewBox="0 0 43.75 43.75"><g id="Layer_2-2"><path d="M43.75,21.88c0,4.23-.05,7.28-.15,9.13s-.38,3.47-.83,4.83c-.59,1.63-1.48,3.04-2.69,4.25-1.21,1.2-2.62,2.1-4.25,2.69-1.37.46-2.98.73-4.83.83s-4.9.15-9.13.15-7.28-.05-9.13-.15-3.47-.41-4.83-.93c-1.63-.52-3.04-1.38-4.25-2.59-1.21-1.2-2.1-2.62-2.69-4.25-.46-1.37-.73-2.98-.83-4.83s-.15-4.9-.15-9.13.05-7.28.15-9.13.37-3.47.83-4.83c.59-1.63,1.48-3.04,2.69-4.25S6.28,1.56,7.91.98c1.37-.46,2.98-.73,4.83-.83s4.9-.15,9.13-.15,7.28.05,9.13.15,3.47.38,4.83.83c1.63.59,3.04,1.48,4.25,2.69,1.2,1.21,2.1,2.62,2.69,4.25.46,1.37.75,3,.88,4.88.06,1.82.1,4.85.1,9.08ZM39.75,29.49c.06-1.43.1-3.45.1-6.05v-3.12c0-2.67-.03-4.69-.1-6.05-.13-2.47-.39-4.23-.78-5.27-.78-2.02-2.18-3.42-4.2-4.2-1.04-.39-2.8-.65-5.27-.78-1.43-.06-3.45-.1-6.05-.1h-3.12c-2.6,0-4.62.03-6.05.1-2.41.13-4.17.39-5.27.78-2.02.78-3.42,2.18-4.2,4.2-.39,1.04-.65,2.8-.78,5.27-.07,1.43-.1,3.45-.1,6.05v3.12c0,2.6.03,4.62.1,6.05.13,2.41.39,4.17.78,5.27.85,2.02,2.25,3.42,4.2,4.2,1.11.39,2.86.65,5.27.78,1.43.07,3.45.1,6.05.1h3.12c2.67,0,4.69-.03,6.05-.1,2.47-.13,4.23-.39,5.27-.78,2.02-.85,3.42-2.25,4.2-4.2.39-1.11.65-2.86.78-5.27ZM27.49,12.16c1.72,1.01,3.09,2.38,4.1,4.1,1.01,1.73,1.51,3.6,1.51,5.62s-.5,3.89-1.51,5.62c-1.01,1.73-2.38,3.09-4.1,4.1-1.73,1.01-3.6,1.51-5.62,1.51s-3.89-.5-5.62-1.51c-1.73-1.01-3.09-2.38-4.1-4.1-1.01-1.72-1.51-3.6-1.51-5.62s.5-3.89,1.51-5.62c1.01-1.72,2.38-3.09,4.1-4.1,1.72-1.01,3.6-1.51,5.62-1.51s3.89.5,5.62,1.51ZM27.05,27.05c1.43-1.43,2.15-3.16,2.15-5.18s-.72-3.74-2.15-5.18c-1.43-1.43-3.16-2.15-5.18-2.15s-3.74.72-5.18,2.15-2.15,3.16-2.15,5.18.72,3.74,2.15,5.18c1.43,1.43,3.16,2.15,5.18,2.15s3.74-.72,5.18-2.15ZM35.45,8.3c-.52-.52-1.14-.78-1.86-.78s-1.33.26-1.86.78-.78,1.14-.78,1.86.26,1.33.78,1.86c.52.52,1.14.78,1.86.78s1.32-.26,1.81-.78c.49-.52.76-1.14.83-1.86,0-.72-.26-1.33-.78-1.86Z"/></g></svg>