<?xml version="1.0" encoding="UTF-8"?><svg id="Layer_2" xmlns="http://www.w3.org/2000/svg" viewBox="0 0 322.43 322.44"><g id="Layer_3"><g id="YY_Black"><path d="M300.97,0H21.46C9.61,0,0,9.61,0,21.46v279.51c0,11.85,9.61,21.46,21.46,21.46h279.51c11.85,0,21.46-9.61,21.46-21.46V21.46c0-11.85-9.61-21.46-21.46-21.46ZM268.9,126.61h6.51v3.24h2.96v4.59h-2.96v2.33h2.96v4.52h-2.96v2.92h-6.51v-17.61ZM275.41,145.3v12.98h-18.17c-1.54,0-2.59-.21-3.17-.66-.58-.44-.87-1.3-.87-2.58v-9.75h22.21ZM252.21,129.07c1.75-1.69,3.88-2.53,6.39-2.53s4.63.82,6.39,2.49c1.75,1.66,2.63,3.72,2.63,6.18s-.87,4.61-2.61,6.37c-1.74,1.76-3.87,2.64-6.37,2.64s-4.67-.87-6.42-2.59c-1.76-1.73-2.63-3.86-2.63-6.39s.87-4.5,2.63-6.18ZM236.8,126.61h6.51v3.24h2.95v4.59h-2.95v2.33h2.95v4.52h-2.95v2.92h-6.51v-17.61ZM243.31,145.3v12.98h-18.17c-1.54,0-2.59-.21-3.17-.66-.58-.44-.87-1.3-.87-2.58v-9.75h22.22ZM220.1,129.07c1.76-1.69,3.88-2.53,6.39-2.53s4.63.82,6.39,2.49c1.75,1.66,2.63,3.72,2.63,6.18s-.87,4.61-2.61,6.37c-1.75,1.76-3.87,2.64-6.37,2.64s-4.67-.87-6.43-2.59c-1.75-1.73-2.62-3.86-2.62-6.39s.87-4.5,2.62-6.18ZM59.65,171.9c0,4.59-2.82,7.68-7.22,7.68s-7.22-3.09-7.22-7.68v-19.85l-17.7-31.26c-.7-1.22-1.23-2.62-1.23-4.02,0-5.24,4.49-7.02,7.31-7.02,3.44,0,5.02,1.49,6.52,4.49l12.59,24.62,12.51-24.62c1.67-3.37,3.26-4.49,6.25-4.49,2.64,0,7.13,1.78,7.13,7.02,0,1.4-.53,2.81-1.23,4.02l-17.7,31.26v19.85ZM112.71,179.57c-5.55,0-7.4-3.74-7.58-7.95-5.02,5.9-10.83,7.95-17.61,7.95-7.31,0-14.53-5.34-14.53-13.94,0-11.33,8.1-14.52,17.96-15.73l7.84-.94c3.08-.37,5.55-1.12,5.55-5.05s-3.79-5.62-8.1-5.62c-9.51,0-9.78,7.49-14.89,7.49-3.26,0-5.45-2.43-5.45-5.25,0-5.43,7.22-12.36,20.43-12.36,12.33,0,20.87,4.22,20.87,14.04v22.94c0,5.71,1.32,7.02,1.32,9.18,0,3.09-2.73,5.24-5.81,5.24ZM197.03,171.26v37.73c0,4.12-2.29,6.83-6.08,6.83s-6.08-2.71-6.08-6.83v-1.78h-.17c-3.34,5.43-8.99,8.61-15.5,8.61-4.4,0-9.96-2.15-12.33-8.61-3.61,5.33-8.19,8.61-15.15,8.61-8.9,0-16.03-4.3-16.03-16.57v-64.23c0-4.12,2.29-6.83,6.08-6.83s6.07,2.72,6.07,6.83v1.78h.18c3.34-5.43,8.98-8.61,15.5-8.61,4.4,0,9.95,2.15,12.33,8.61,3.61-5.33,8.19-8.61,15.15-8.61,8.89,0,16.03,4.31,16.03,16.57v26.51ZM226.1,215.82c-12.33,0-20.87-4.21-20.87-14.04v-22.94c0-5.71-1.32-7.03-1.32-9.18,0-3.09,2.73-5.24,5.81-5.24,5.55,0,7.4,3.74,7.58,7.95,5.02-5.9,10.83-7.95,17.61-7.95,7.31,0,14.53,5.34,14.53,13.94,0,11.33-8.1,14.51-17.96,15.72l-7.84.94c-3.08.37-5.55,1.12-5.55,5.05s3.79,5.62,8.1,5.62c9.51,0,9.78-7.49,14.89-7.49,3.26,0,5.46,2.43,5.46,5.24,0,5.43-7.22,12.36-20.43,12.36ZM288.85,234.26c-3.44,0-5.02-1.5-6.52-4.5l-12.59-24.62-12.51,24.62c-1.67,3.37-3.26,4.5-6.25,4.5-2.64,0-7.13-1.78-7.13-7.02,0-1.41.53-2.81,1.23-4.02l17.7-31.27v-19.85c0-4.58,2.82-7.67,7.22-7.67s7.22,3.09,7.22,7.67v19.85l17.7,31.27c.7,1.21,1.23,2.62,1.23,4.02,0,5.24-4.49,7.02-7.31,7.02Z"/><path d="M226.46,138.89c.84,0,1.49-.4,1.95-1.22.4-.69.59-1.48.59-2.36,0-.97-.21-1.83-.63-2.54-.42-.72-1.05-1.08-1.91-1.08-.79,0-1.42.36-1.91,1.06-.49.7-.74,1.54-.74,2.49s.24,1.85.72,2.58c.48.72,1.12,1.08,1.93,1.08Z"/><rect x="227.65" y="150.18" width="9.15" height="3.2"/><path d="M94.13,158.23c-5.37.84-8.28,2.62-8.28,6.74,0,3.09,2.73,5.61,7.13,5.61,7.05,0,11.36-4.86,11.36-9.91v-5.34c-1.41,1.4-4.05,1.87-5.55,2.15l-4.67.75Z"/><path d="M177.13,139.41c-4.93,0-9.33,4.21-9.33,10.58v22.74s0,.03,0,.04v23.01c0,4.87,2.03,8.8,7.05,8.8s9.33-4.21,9.33-10.58v-45.79c0-4.87-2.02-8.8-7.04-8.8Z"/><path d="M147.89,139.41c-4.93,0-9.33,4.21-9.33,10.58v45.79c0,4.87,2.02,8.8,7.04,8.8s9.34-4.21,9.34-10.58v-45.79c0-4.87-2.03-8.8-7.05-8.8Z"/><path d="M258.56,138.89c.84,0,1.49-.4,1.95-1.22.4-.69.59-1.48.59-2.36,0-.97-.21-1.83-.63-2.54-.41-.72-1.05-1.08-1.91-1.08-.79,0-1.42.36-1.91,1.06-.49.7-.73,1.54-.73,2.49s.24,1.85.72,2.58c.48.72,1.12,1.08,1.93,1.08Z"/><rect x="259.74" y="150.18" width="9.15" height="3.2"/><path d="M228.31,185.77c5.37-.84,8.27-2.62,8.27-6.74,0-3.1-2.73-5.62-7.13-5.62-7.05,0-11.36,4.87-11.36,9.92v5.34c1.41-1.4,4.05-1.87,5.55-2.15l4.67-.75Z"/></g></g></svg>