<?xml version="1.0" encoding="UTF-8"?><svg id="Layer_2" xmlns="http://www.w3.org/2000/svg" viewBox="0 0 182.9 182.9"><defs><style>.cls-1{fill:#ff1705;}</style></defs><g id="Layer_2-2"><path class="cls-1" d="M128.46,78.79c.47,0,.84-.23,1.1-.69.22-.39.34-.84.34-1.34,0-.55-.12-1.04-.36-1.44-.24-.41-.6-.61-1.08-.61-.45,0-.81.2-1.08.6-.28.4-.42.87-.42,1.41s.14,1.05.41,1.46c.27.41.63.61,1.1.61Z"/><rect class="cls-1" x="129.13" y="85.19" width="5.19" height="1.81"/><path class="cls-1" d="M53.39,89.76c-3.05.48-4.69,1.49-4.69,3.82,0,1.75,1.55,3.18,4.04,3.18,4,0,6.45-2.76,6.45-5.62v-3.03c-.8.79-2.3,1.06-3.15,1.22l-2.65.42Z"/><path class="cls-1" d="M100.48,79.08c-2.8,0-5.29,2.39-5.29,6v12.9s0,.02,0,.02v13.05c0,2.76,1.15,4.99,4,4.99s5.3-2.39,5.3-6v-25.98c0-2.76-1.15-4.99-4-4.99Z"/><path class="cls-1" d="M83.89,79.08c-2.8,0-5.29,2.39-5.29,6v25.98c0,2.76,1.15,4.99,3.99,4.99s5.3-2.39,5.3-6v-25.98c0-2.76-1.15-4.99-4-4.99Z"/><path class="cls-1" d="M170.73,0H12.18C5.45,0,0,5.45,0,12.17v158.55c0,6.72,5.45,12.18,12.18,12.18h158.55c6.72,0,12.17-5.45,12.17-12.18V12.17c0-6.72-5.45-12.17-12.17-12.17ZM152.53,71.82h3.69v1.84h1.68v2.61h-1.68v1.32h1.68v2.57h-1.68v1.66h-3.69v-9.99ZM156.23,82.42v7.36h-10.31c-.87,0-1.47-.12-1.8-.37-.33-.25-.5-.74-.5-1.46v-5.53h12.6ZM143.07,73.21c.99-.96,2.2-1.43,3.62-1.43s2.63.47,3.62,1.41c.99.94,1.49,2.11,1.49,3.51s-.49,2.61-1.48,3.62c-.99,1-2.19,1.5-3.61,1.5s-2.65-.49-3.64-1.47c-1-.98-1.49-2.19-1.49-3.62s.49-2.55,1.49-3.5ZM134.33,71.82h3.69v1.84h1.68v2.61h-1.68v1.32h1.68v2.57h-1.68v1.66h-3.69v-9.99ZM138.02,82.42v7.36h-10.31c-.87,0-1.47-.12-1.8-.37-.33-.25-.5-.74-.5-1.46v-5.53h12.6ZM124.85,73.21c1-.96,2.2-1.43,3.62-1.43s2.63.47,3.62,1.41c.99.94,1.49,2.11,1.49,3.51s-.49,2.61-1.48,3.62c-.99,1-2.19,1.5-3.62,1.5s-2.65-.49-3.65-1.47c-.99-.98-1.49-2.19-1.49-3.62s.49-2.55,1.49-3.5ZM33.84,97.51c0,2.6-1.6,4.35-4.1,4.35s-4.1-1.75-4.1-4.35v-11.26l-10.04-17.73c-.4-.69-.7-1.49-.7-2.28,0-2.97,2.55-3.98,4.15-3.98,1.95,0,2.85.85,3.7,2.55l7.14,13.97,7.1-13.97c.95-1.91,1.85-2.55,3.55-2.55,1.5,0,4.05,1.01,4.05,3.98,0,.79-.3,1.59-.7,2.28l-10.04,17.73v11.26ZM63.94,101.86c-3.15,0-4.2-2.12-4.3-4.51-2.85,3.35-6.14,4.51-9.99,4.51-4.15,0-8.24-3.03-8.24-7.91,0-6.43,4.6-8.23,10.19-8.92l4.45-.53c1.75-.21,3.15-.64,3.15-2.87s-2.15-3.19-4.6-3.19c-5.4,0-5.54,4.25-8.44,4.25-1.85,0-3.09-1.38-3.09-2.98,0-3.08,4.09-7.01,11.59-7.01,6.99,0,11.84,2.39,11.84,7.97v13.01c0,3.24.75,3.98.75,5.21,0,1.75-1.55,2.97-3.29,2.97ZM111.77,97.15v21.4c0,2.34-1.3,3.87-3.45,3.87s-3.45-1.54-3.45-3.87v-1.01h-.1c-1.9,3.08-5.1,4.88-8.79,4.88-2.5,0-5.65-1.22-6.99-4.88-2.05,3.03-4.65,4.88-8.59,4.88-5.05,0-9.09-2.44-9.09-9.4v-36.44c0-2.34,1.3-3.88,3.45-3.88s3.44,1.54,3.44,3.88v1.01h.1c1.9-3.08,5.1-4.89,8.79-4.89,2.5,0,5.64,1.22,6.99,4.89,2.05-3.03,4.65-4.89,8.59-4.89,5.04,0,9.09,2.44,9.09,9.4v15.04ZM128.26,122.42c-6.99,0-11.84-2.39-11.84-7.96v-13.01c0-3.24-.75-3.98-.75-5.2,0-1.75,1.55-2.97,3.3-2.97,3.15,0,4.2,2.12,4.3,4.51,2.85-3.34,6.14-4.51,9.99-4.51,4.15,0,8.24,3.03,8.24,7.91,0,6.42-4.6,8.23-10.19,8.92l-4.45.53c-1.75.21-3.15.64-3.15,2.87s2.15,3.19,4.6,3.19c5.4,0,5.54-4.25,8.44-4.25,1.85,0,3.1,1.38,3.1,2.97,0,3.08-4.09,7.01-11.59,7.01ZM163.85,132.88c-1.95,0-2.85-.85-3.7-2.55l-7.14-13.96-7.09,13.96c-.95,1.91-1.85,2.55-3.55,2.55-1.5,0-4.05-1.01-4.05-3.98,0-.8.3-1.59.7-2.28l10.04-17.74v-11.26c0-2.6,1.6-4.35,4.1-4.35s4.1,1.75,4.1,4.35v11.26l10.04,17.74c.4.69.7,1.48.7,2.28,0,2.97-2.55,3.98-4.15,3.98Z"/><path class="cls-1" d="M146.67,78.79c.48,0,.85-.23,1.11-.69.22-.39.34-.84.34-1.34,0-.55-.12-1.04-.36-1.44-.23-.41-.6-.61-1.09-.61-.45,0-.81.2-1.08.6-.28.4-.42.87-.42,1.41s.14,1.05.41,1.46c.27.41.64.61,1.09.61Z"/><rect class="cls-1" x="147.34" y="85.19" width="5.19" height="1.81"/><path class="cls-1" d="M129.51,105.38c3.04-.48,4.69-1.49,4.69-3.82,0-1.76-1.55-3.19-4.04-3.19-4,0-6.44,2.76-6.44,5.63v3.03c.8-.79,2.3-1.06,3.15-1.22l2.65-.43Z"/></g></svg>