<svg xmlns="http://www.w3.org/2000/svg" viewBox="0 0 700 700" preserveAspectRatio="xMaxYMax meet">
<g>
<path style="fill:#CA3625;" d="M132,315.8c5.9-1.7,11.7-2,17.6-1.1c5.8,0.9,11.2,2.9,16.2,6c5,3.1,9.4,7.1,13.2,12.1c3.8,5,6.6,10.7,8.4,17l25.4,89.5c1.8,6.4,2.4,12.8,1.8,19.1c-0.6,6.3-2.2,12.1-4.8,17.3c-2.6,5.2-6.2,9.7-10.7,13.5s-9.7,6.5-15.5,8.2c-5.9,1.7-11.7,2.1-17.5,1.2c-5.8-0.9-11.2-2.8-16.2-5.9c-5-3.1-9.4-7.1-13.2-12.2c-3.8-5-6.7-10.8-8.5-17.2l-25.4-89.5c-1.8-6.4-2.4-12.7-1.8-18.9c0.6-6.2,2.3-12,4.9-17.2c2.6-5.2,6.2-9.8,10.6-13.6C120.9,320.2,126.1,317.5,132,315.8z M139.6,342.7c-2.4,0.7-4.6,1.8-6.5,3.4c-1.9,1.6-3.4,3.5-4.6,5.7c-1.2,2.2-1.9,4.7-2.1,7.3c-0.2,2.6,0.1,5.2,0.8,7.8l25.4,89.5c0.8,2.7,1.9,5.1,3.4,7.2c1.5,2.1,3.4,3.7,5.6,4.9c2.2,1.2,4.5,2,7,2.4c2.4,0.4,4.9,0.3,7.3-0.4c2.4-0.7,4.6-1.9,6.5-3.5c1.9-1.7,3.4-3.6,4.5-5.7c1.1-2.1,1.8-4.5,2.1-7.1c0.3-2.6,0-5.2-0.7-8l-25.4-89.5c-0.7-2.6-1.9-4.9-3.5-7c-1.6-2.1-3.5-3.9-5.5-5.2c-2.1-1.3-4.4-2.1-6.8-2.5C144.5,341.8,142,342,139.6,342.7z M243.8,365.7l17.6-5l7.4,26.1l-17.6,5l22.7,79.9l-24.1,6.8L198.3,297l24.1-6.8L243.8,365.7z"/>
<path style="fill:#CA3625;" d="M334.7,321.6c5.7-1.2,11.3-1.1,16.8,0.4c5.5,1.5,10.6,4,15.2,7.5c4.6,3.5,8.7,7.9,12,13.2c3.4,5.3,5.7,11.1,7.1,17.5l19.5,89.7c1.4,6.3,1.6,12.6,0.7,18.7c-0.9,6.2-2.8,11.8-5.5,17c-2.8,5.2-6.4,9.6-10.9,13.2c-4.5,3.6-9.6,6.1-15.3,7.3l-8.5,1.9c-6,1.3-11.8,1.3-17.6,0c-5.8-1.3-11-3.7-15.8-7.1c-4.8-3.5-8.9-7.8-12.4-13c-3.5-5.2-6-11.1-7.4-17.8L293,380.5c-1.5-6.7-1.7-13.1-0.7-19.3c1-6.2,3-11.8,5.9-17c2.9-5.1,6.7-9.5,11.4-13.2c4.7-3.7,10-6.1,16-7.4L334.7,321.6z M331.6,351.4c-2.5,0.5-4.7,1.6-6.6,3.1c-2,1.5-3.6,3.3-5,5.4c-1.4,2.1-2.2,4.4-2.6,7.1c-0.3,2.6-0.2,5.3,0.4,8.1l19.5,89.7c0.6,2.8,1.6,5.2,3,7.4c1.4,2.2,3.1,4,5.3,5.4c2.1,1.4,4.4,2.4,6.8,3c2.4,0.6,4.9,0.6,7.3,0.1l7.9-1.7c2.5-0.5,4.6-1.6,6.4-3.1c1.8-1.5,3.3-3.4,4.5-5.6c1.2-2.2,2-4.6,2.3-7.1c0.4-2.5,0.3-5.1-0.3-7.7L361,365.6c-0.6-2.6-1.5-5-2.9-7.1c-1.4-2.2-3-4-5-5.4c-1.9-1.5-4.1-2.5-6.4-3.2c-2.4-0.7-4.7-0.8-7-0.3L331.6,351.4z M462.4,487l-26.8,5.8l-40.2-184.4l26.8-5.8L462.4,487z"/>
<path style="fill:#CA3625;" d="M517.1,418.6l-11.3-79l25.9-3.7l11.3,79l33.1-4.8l-9.7-133.6l-102.5,14.7l-3.8-26.7L589.1,246l3.8,26.7l9.7,133.6l21.4-3.1l3.7,25.9l-152,21.8l-3.7-25.9L517.1,418.6z"/>
<path style="fill:#863399;" d="M116.9,305.8c5.9-1.7,11.7-2,17.6-1.1s11.2,2.9,16.2,6c5,3.1,9.4,7.1,13.2,12.1c3.8,5,6.6,10.7,8.4,17l25.4,89.5c1.8,6.4,2.4,12.8,1.8,19.1c-0.6,6.3-2.2,12.1-4.8,17.3c-2.6,5.2-6.2,9.7-10.7,13.5s-9.7,6.5-15.5,8.2c-5.9,1.7-11.7,2.1-17.5,1.2c-5.8-0.9-11.2-2.8-16.2-5.9c-5-3.1-9.4-7.1-13.2-12.2c-3.8-5-6.7-10.8-8.5-17.2l-25.4-89.5c-1.8-6.4-2.4-12.7-1.8-18.9c0.6-6.2,2.3-12,4.9-17.2c2.6-5.2,6.2-9.8,10.6-13.6C105.9,310.3,111,307.5,116.9,305.8z M124.5,332.7c-2.4,0.7-4.6,1.8-6.5,3.4c-1.9,1.6-3.4,3.5-4.6,5.7c-1.2,2.2-1.9,4.7-2.1,7.3c-0.2,2.6,0.1,5.2,0.8,7.8l25.4,89.5c0.8,2.7,1.9,5.1,3.4,7.2c1.5,2.1,3.4,3.7,5.6,4.9c2.2,1.2,4.5,2,7,2.4c2.4,0.4,4.9,0.3,7.3-0.4c2.4-0.7,4.6-1.9,6.5-3.5c1.9-1.7,3.4-3.6,4.5-5.7c1.1-2.1,1.8-4.5,2.1-7.1c0.3-2.6,0-5.2-0.7-8l-25.4-89.5c-0.7-2.6-1.9-4.9-3.5-7c-1.6-2.1-3.5-3.9-5.5-5.2c-2.1-1.3-4.4-2.1-6.8-2.5C129.4,331.8,127,332,124.5,332.7z M228.8,355.7l17.6-5l7.4,26.1l-17.6,5l22.7,79.9l-24.1,6.8L183.3,287l24.1-6.8L228.8,355.7z"/>
<path style="fill:#863399;" d="M319.7,311.6c5.7-1.2,11.3-1.1,16.8,0.4c5.5,1.5,10.6,4,15.2,7.5c4.6,3.5,8.7,7.9,12,13.2c3.4,5.3,5.7,11.1,7.1,17.5l19.5,89.7c1.4,6.3,1.6,12.6,0.7,18.7c-0.9,6.2-2.8,11.8-5.5,17c-2.8,5.2-6.4,9.6-10.9,13.2c-4.5,3.6-9.6,6.1-15.3,7.3l-8.5,1.9c-6,1.3-11.8,1.3-17.6,0c-5.8-1.3-11-3.7-15.8-7.1c-4.8-3.5-8.9-7.8-12.4-13c-3.5-5.2-6-11.1-7.4-17.8l-19.5-89.7c-1.5-6.7-1.7-13.1-0.7-19.3c1-6.2,3-11.8,5.9-17c2.9-5.1,6.7-9.5,11.4-13.2c4.7-3.7,10-6.1,16-7.4L319.7,311.6z M316.6,341.4c-2.5,0.5-4.7,1.6-6.6,3.1c-2,1.5-3.6,3.3-5,5.4c-1.4,2.1-2.2,4.4-2.6,7.1c-0.3,2.6-0.2,5.3,0.4,8.1l19.5,89.7c0.6,2.8,1.6,5.2,3,7.4c1.4,2.2,3.1,4,5.3,5.4c2.1,1.4,4.4,2.4,6.8,3c2.4,0.6,4.9,0.6,7.3,0.1l7.9-1.7c2.5-0.5,4.6-1.6,6.4-3.1c1.8-1.5,3.3-3.4,4.5-5.6c1.2-2.2,2-4.6,2.3-7.1c0.4-2.5,0.3-5.1-0.3-7.7l-19.5-89.7c-0.6-2.6-1.5-5-2.9-7.1c-1.4-2.2-3-4-5-5.4c-1.9-1.5-4.1-2.5-6.4-3.2c-2.4-0.7-4.7-0.8-7-0.3L316.6,341.4z M447.3,477l-26.8,5.8l-40.2-184.4l26.8-5.8L447.3,477z"/>
<path style="fill:#863399;" d="M502,408.6l-11.3-79l25.9-3.7l11.3,79l33.1-4.8l-9.7-133.6l-102.5,14.7l-3.8-26.7L574,236.1l3.8,26.7l9.7,133.6l21.4-3.1l3.7,25.9l-152,21.8l-3.7-25.9L502,408.6z"/>
</g>
</svg>
