<svg xmlns="http://www.w3.org/2000/svg" viewBox="0 0 700 700" preserveAspectRatio="xMinYMin meet">
<g>
<path style="fill:#FFDA00;" d="M211.3,390.4c8.5,33.6,21.5,65.7,33.8,98c12.2,31.9,23,63.6,28.6,97.5c0.3,1.6,0.5,3.1,0.8,4.7l34.1-3.8c-0.5-3.2-1-6.4-1.5-9.6c-5.7-33.5-17.1-64.8-29.8-96c-12.8-31.3-26.3-62.5-34.4-95.5c-8.9-36-12.8-73.6-16.8-110.4c-2.8-26-6.3-52-9.7-78L187.5,214c2.2,22.1,4.6,44.1,6.9,66.2C198.2,317,202.1,354.5,211.3,390.4z"/>
<path style="fill:#FFDA00;" d="M463.9,332.8c5.6,34.5,17.7,63.4,35.8,92.7c15.8,25.5,32.4,50.5,40.1,80.2c2,7.9,3.6,15.9,4.7,24.1l24.4-5.3c-1.6-11.9-3.8-23.6-6.7-35.1c-6.8-26.7-21-49.1-34.6-72.5c-34.4-59.2-37.2-129.6-46.2-196.5c-1.5-11.4-3.3-22.8-5.2-34.2l-29.9,2.2c1.9,12.8,3.6,25.7,5,38.6C455.2,262.4,458.2,297.8,463.9,332.8z"/>
<path style="fill:#FFDA00;" d="M584.3,470.1c0.2,0.9,0.5,1.9,0.7,2.8h30c-1.8-8.2-3.8-16.4-6.1-24.5c-5.5-19.6-15.8-35.7-25-53.4c-13.4-26-18.1-54.8-24.2-83.3c-1-5-2.1-9.9-3.1-14.9l-33.8,2.7c6.3,37.7,15.1,75,32.5,107.4C566.4,427.6,578.4,446.9,584.3,470.1z"/>
<path style="fill:#FFDA00;" d="M338.2,368.1c6.9,31.9,20.7,60.6,35.4,89.2c14.6,28.3,29.3,56.7,36.2,88.3c4.8,21.9,7,44.4,8.2,66.9l35.9-12.7c-0.7-21.4-2.4-42.8-7-63.5c-7.2-32.2-24.3-60.3-40.5-88.3c-16.5-28.6-31.1-57.3-37.6-90.2c-7.2-36.1-10.3-72.9-14.4-109.4c-3.5-31.4-8.8-62.1-15.1-92.6L308,168.5c6,29.3,11.2,58.9,14.7,89.1C326.9,294.5,330.4,331.8,338.2,368.1z"/>
<path style="fill:#FFDA00;" d="M148.3,397.5c8.6,34.8,20.3,68.6,31.2,102.6c4.2,13,7.9,26.1,11.3,39.2L225,533c-3.8-12.7-8-25.3-12.5-37.9c-11.7-33.3-24.1-66.3-32.7-100.6c-9-35.8-13.4-73.1-17.1-109.8c-0.6-6.2-1.3-12.4-1.9-18.6l-31.7,11.2c0.4,3.9,0.8,7.7,1.2,11.6C134.4,325.3,139.5,361.9,148.3,397.5z"/>
<path style="fill:#FFDA00;" d="M275,382.3c7.8,31.8,21.1,61.7,33.8,91.6c11.2,26.3,21.3,52.7,27.8,80.6l32.1-17.2c-7.1-24.5-17.2-47.7-27.9-71c-13.5-29.4-26.9-58.9-34-90.8c-8.2-36.4-11.9-73.8-16.3-110.8c-2.4-20.3-5-40.6-8.2-60.8l-30.3,17.9c2.1,16.4,4,32.9,6,49.4C262.2,308.3,266.1,346.1,275,382.3z"/>
<path style="fill:#FFDA00;" d="M399.9,347.6c6.2,34.3,21,62.9,39.1,91.8c17.5,28,36.5,55.9,43.9,89c1.6,7.1,2.8,14.3,3.7,21.5l32.8,0.4c-1-10.7-2.6-21.4-5.1-31.7c-7.8-32.2-26.5-59.1-44-86.2c-18.4-28.6-32.3-56.3-38.4-90.4c-6.2-35.1-9-70.7-12.7-106.2c-0.4-4.1-0.9-8.3-1.4-12.4l-31.3,15.3c0.3,2.7,0.6,5.4,0.9,8C390.9,280.4,393.9,314.3,399.9,347.6z"/>
</g>
</svg>
